<?xml version="1.0" standalone="no"?><!DOCTYPE svg PUBLIC "-//W3C//DTD SVG 1.1//EN" "http://www.w3.org/Graphics/SVG/1.1/DTD/svg11.dtd"><svg t="1682318674822" class="icon" viewBox="0 0 1152 1024" version="1.1" xmlns="http://www.w3.org/2000/svg" p-id="6765" xmlns:xlink="http://www.w3.org/1999/xlink" width="225" height="200"><path d="M1075.19999999 32L76.8 32C44.8 32 19.2 57.6 19.2 89.6s25.6 57.6 57.6 57.6l998.4 0c32 0 57.6-25.6 57.6-57.6 6.4-32-25.6-57.6-57.60000001-57.6zM1075.2 454.4L473.6 454.4c-32 0-57.6 25.6-57.59999998 57.6s25.6 57.6 57.59999998 57.6l601.6 0c32 0 57.6-25.6 57.6-57.6 6.4-32-25.6-57.6-57.6-57.6zM236.8 313.6L32 499.2c-6.4 6.4-6.4 19.2 0 25.6L236.8 704c6.4 6.4 12.8 0 12.8 0L249.6 326.4c6.4-6.4 0-12.8-6.4-12.8l-6.4 0zM1075.2 870.4L76.8 870.4c-32 0-57.6 25.6-57.6 57.59999999s25.6 57.6 57.6 57.60000001l998.39999999 0c32 0 57.6-25.6 57.60000001-57.60000001 6.4-32-25.6-57.6-57.6-57.59999999z" p-id="6766" fill="#ffffff"></path></svg>